<?xml version="1.0" encoding="utf-8"?>
<!-- Generator: Adobe Illustrator 16.0.0, SVG Export Plug-In . SVG Version: 6.00 Build 0)  -->
<!DOCTYPE svg PUBLIC "-//W3C//DTD SVG 1.1//EN" "http://www.w3.org/Graphics/SVG/1.1/DTD/svg11.dtd">
<svg version="1.1" id="Layer_1" xmlns="http://www.w3.org/2000/svg" xmlns:xlink="http://www.w3.org/1999/xlink" x="0px" y="0px"
	 width="400px" height="400px" viewBox="0 0 400 400" enable-background="new 0 0 400 400" xml:space="preserve">
<path d="M198.94,297.4c-0.033-10.655,8.578-19.319,19.232-19.353c0.04,0,0.08,0,0.12,0c10.652-0.033,19.315,8.575,19.349,19.228
	c0,0.042,0,0.083,0,0.125c0.035,10.652-8.572,19.316-19.225,19.352c-0.041,0-0.082,0-0.124,0
	c-10.655,0.033-19.319-8.577-19.352-19.232C198.94,297.48,198.94,297.439,198.94,297.4 M277.668,297.4
	c-0.033-10.655,8.577-19.319,19.232-19.353c0.039,0,0.08,0,0.119,0c10.653-0.033,19.315,8.575,19.349,19.228
	c0,0.042,0,0.083,0,0.125c0.035,10.652-8.571,19.316-19.224,19.352c-0.041,0-0.083,0-0.125,0
	c-10.654,0.033-19.318-8.577-19.352-19.232C277.668,297.48,277.668,297.439,277.668,297.4 M95.164,297.4
	c-0.036-10.652,8.571-19.316,19.224-19.353c0.043,0,0.085,0,0.128,0c10.652-0.033,19.315,8.575,19.348,19.228
	c0,0.042,0,0.083,0,0.125c0.035,10.652-8.572,19.316-19.224,19.352c-0.042,0-0.083,0-0.124,0
	c-10.652,0.035-19.317-8.571-19.352-19.224C95.164,297.485,95.164,297.443,95.164,297.4 M16.436,297.4
	c-0.036-10.652,8.571-19.316,19.224-19.353c0.042,0,0.083,0,0.125,0c10.652-0.035,19.316,8.571,19.352,19.224
	c0,0.043,0,0.086,0,0.129c0.035,10.652-8.572,19.316-19.224,19.352c-0.042,0-0.085,0-0.128,0
	c-10.652,0.033-19.315-8.575-19.348-19.228C16.436,297.482,16.436,297.441,16.436,297.4 M175.612,263.204H158.78v67.728h16.832
	V263.204z M55.004,330.932h16.832v-67.728H55.004v5.437c-5.872-4.084-12.86-6.259-20.012-6.229
	C15.687,262.393,0.02,278.026,0,297.332c0,0.022,0,0.045,0,0.068c-0.064,19.259,15.497,34.924,34.755,34.988
	c0.079,0,0.158,0,0.237,0c7.152,0.029,14.14-2.145,20.012-6.229V330.932z M316.236,330.932h16.832v-67.728h-16.832v5.437
	c-5.872-4.084-12.859-6.259-20.012-6.229c-19.305-0.02-34.969,15.612-34.988,34.916c0,0.023,0,0.048,0,0.072
	c-0.066,19.256,15.49,34.922,34.747,34.988c0.08,0,0.161,0,0.241,0c7.152,0.029,14.14-2.145,20.012-6.229V330.932z M339.3,308.928
	c0.528,13.652,12.192,23.328,31.676,23.328c15.904,0,29.024-6.892,29.024-22.132c0-10.604-5.964-16.832-19.748-19.483l-10.736-2.121
	c-6.892-1.324-11.664-2.651-11.664-6.76c0-4.504,4.641-6.492,10.473-6.492c8.483,0,11.928,4.24,12.191,9.276h16.969
	c-0.929-13.256-11.532-22.132-28.629-22.132c-17.628,0-28.1,9.672-28.1,22.264c0,15.377,12.46,17.893,23.196,19.881l8.88,1.592
	c6.36,1.191,9.144,3.048,9.144,6.76c0,3.312-3.18,6.624-10.735,6.624c-11,0-14.58-5.696-14.712-10.604H339.3z M133.732,240.145
	v28.496c-5.872-4.084-12.86-6.259-20.012-6.229c-19.306-0.02-34.972,15.614-34.992,34.92c0,0.022,0,0.045,0,0.068
	c-0.064,19.259,15.497,34.924,34.755,34.988c0.079,0,0.158,0,0.237,0c7.152,0.029,14.14-2.145,20.012-6.229v4.771h16.832v-90.787
	H133.732z M237.508,240.145v28.496c-5.871-4.084-12.859-6.259-20.012-6.229c-19.304-0.02-34.968,15.612-34.988,34.916
	c0,0.023,0,0.048,0,0.072c-0.066,19.256,15.491,34.922,34.748,34.988c0.08,0,0.16,0,0.24,0c7.152,0.029,14.141-2.145,20.012-6.229
	v4.771h16.832v-90.787H237.508z M43.736,220.132l11.4,20.013h78.596l-31.148-53.812L43.736,220.132z M175.612,256.977v-16.832
	h61.896l-66.004-114.249l-58.98,33.796l46.256,80.453v16.832H175.612z M262.561,240.145h78.728L239.496,64l-58.844,33.928
	L262.561,240.145L262.561,240.145z"/>
</svg>
